<?xml version="1.0" standalone="no"?><!DOCTYPE svg PUBLIC "-//W3C//DTD SVG 1.1//EN" "http://www.w3.org/Graphics/SVG/1.1/DTD/svg11.dtd"><svg t="1768463744911" class="icon" viewBox="0 0 1024 1024" version="1.1" xmlns="http://www.w3.org/2000/svg" p-id="19207" xmlns:xlink="http://www.w3.org/1999/xlink" width="32" height="32"><path d="M590.94 668.662l-0.222 75.888c-0.028 11.608-7.66 23.2-22.92 32.06-30.644 17.81-80.588 17.846-111.494 0-15.52-8.964-23.274-20.748-23.246-32.516l0.224-75.88c-0.036 11.768 7.718 23.554 23.236 32.52 30.906 17.834 80.85 17.806 111.494 0 15.26-8.874 22.892-20.462 22.93-32.072z" fill="#4F575F" p-id="19208"></path><path d="M512.039653 703.013917a78.838 45.662 0.17 1 0 0.270963-91.323598 78.838 45.662 0.17 1 0-0.270963 91.323598Z" fill="#4F575F" p-id="19209"></path><path d="M176.11 414.59c14.512 8.378 14.596 21.97 0.186 30.348-14.43 8.378-37.888 8.378-52.41 0-14.522-8.38-14.598-21.97-0.168-30.348 14.42-8.38 37.87-8.38 52.392 0z" fill="#BCC1CB" p-id="19210"></path><path d="M105.938 351.084h88.156l-7.046 78.68h-74.1l-7.01-78.68z" fill="#BCC1CB" p-id="19211"></path><path d="M181.258 329.988c17.37 10.036 17.48 26.308 0.214 36.334-17.268 10.044-45.364 10.036-62.734 0-17.38-10.036-17.474-26.3-0.206-36.334 17.26-10.034 45.336-10.034 62.726 0z" fill="#EBEEF4" p-id="19212"></path><path d="M181.974 326.768l-0.066 22.192c-0.008 4.386-2.884 8.77-8.656 12.112-11.59 6.74-30.44 6.72-42.096 0-5.874-3.388-8.806-7.84-8.798-12.28l0.066-22.192c-0.02 4.44 2.922 8.89 8.796 12.28 11.638 6.72 30.506 6.74 42.106 0 5.754-3.352 8.63-7.728 8.648-12.102v-0.01z" fill="#2A3134" p-id="19213"></path><path d="M173.186 314.49c11.646 6.72 11.73 17.648 0.14 24.388-11.6 6.74-30.46 6.722-42.106 0-11.672-6.74-11.738-17.65-0.14-24.388 11.6-6.74 30.432-6.74 42.106 0z" fill="#4F575F" p-id="19214"></path><path d="M140.968 321.276l-12.148 27.18-18.024 5.578-22.36 95.78a7.426 7.426 0 0 0 1.016 5.64l5.528 7.598c1.258 1.714 2.97 1.564 3.846-0.39l55.202-123.476-13.06-17.91z m63.73-137.99c-1.258-1.72-2.98-1.554-3.836 0.382L145.66 307.144l13.05 17.92 12.15-27.174 18.02-5.576 22.352-95.76a7.42 7.42 0 0 0-1.004-5.672l-5.53-7.596z" fill="#FF6161" p-id="19215"></path><path d="M174.658 304.48l-0.048 20.556c-0.008 3.314-2.186 6.61-6.524 9.14-8.752 5.084-22.986 5.076-31.772 0-4.432-2.56-6.648-5.92-6.64-9.27l0.048-20.554c0 3.35 2.206 6.702 6.638 9.272 8.788 5.072 23.02 5.082 31.772 0 4.346-2.532 6.516-5.838 6.516-9.142h0.01z" fill="#2A3134" p-id="19216"></path><path d="M168.03 295.22c8.786 5.072 8.842 13.312 0.092 18.404-8.75 5.082-22.974 5.072-31.762 0-8.806-5.092-8.854-13.312-0.102-18.404 8.75-5.092 22.956-5.092 31.772 0z" fill="#4F575F" p-id="19217"></path><path d="M165.18 283.07l-0.028 20.016c0 1.9-1.256 3.816-3.76 5.268-7.968 4.626-22.202 1.434-22.184-5.352l0.028-20.006c0 1.936 1.276 3.872 3.836 5.354 7.93 4.58 22.09 1.498 22.108-5.28z" fill="#2A3134" p-id="19218"></path><path d="M161.354 277.72c5.074 2.93 5.12 7.688 0.056 10.63-5.046 2.932-13.266 2.922-18.34 0-5.09-2.942-5.12-7.69-0.064-10.632 5.056-2.932 13.266-2.932 18.348 0z" fill="#4F575F" p-id="19219"></path><path d="M891.346 414.59c14.52 8.378 14.606 21.97 0.186 30.348-14.43 8.378-37.888 8.378-52.4 0-14.524-8.38-14.598-21.97-0.168-30.348 14.42-8.38 37.868-8.38 52.39 0h-0.008z" fill="#BCC1CB" p-id="19220"></path><path d="M821.182 351.084h88.158l-7.046 78.68h-74.1l-7.012-78.68z" fill="#BCC1CB" p-id="19221"></path><path d="M896.502 329.988c17.372 10.036 17.474 26.308 0.214 36.334-17.268 10.044-45.362 10.036-62.734 0-17.388-10.036-17.472-26.3-0.204-36.334 17.26-10.034 45.336-10.034 62.724 0z" fill="#EBEEF4" p-id="19222"></path><path d="M859.526 398.242l-0.1 22.556L615.58 644.626l0.102-102.856 243.842-143.528z" fill="#DBDFE6" p-id="19223"></path><path d="M403.13 541.696l-0.112 102.846L157.23 420.808l0.094-22.556 245.806 143.444z" fill="#CCD0D9" p-id="19224"></path><path d="M529.148 611.728l-0.112 102.848-38.614 0.046 0.112-102.848 38.614-0.046z m332.446 154.4l-0.092 22.556-31.094 18.154 0.094-22.556 31.092-18.154z" fill="#BCC1CB" p-id="19225"></path><path d="M830.51 784.28l-0.102 22.548-301.372-92.252 0.112-102.848 301.36 172.554z" fill="#CCD0D9" p-id="19226"></path><path d="M547.672 700.808l0.056-56.982 213.97 122.508-214.026-65.526z" fill="#4F575F" p-id="19227"></path><path d="M190.76 784.32l-0.1 22.554-31.438-18.152 0.094-22.546 31.446 18.142z" fill="#BCC1CB" p-id="19228"></path><path d="M828.23 380.1l31.298 18.152-243.844 143.52 0.038 18.728L861.594 766.14l-31.092 18.154-301.354-172.554-38.614 0.046L190.76 784.328l-31.436-18.152 243.908-205.62-0.104-18.85L157.324 398.24l31.158-18.106 302.358 110.9h36.558l300.832-110.936z" fill="#EBEEF4" p-id="19229"></path><path d="M431.234 573.478l-0.26-47.868-123.532-72.09 178.446 65.452h46.49l179.366-66.15-124.016 73 0.094 47.758 150.034 125.468-201.3-115.256-53.498 0.056-202.194 116.382 150.37-126.752z" fill="#FF6161" p-id="19230"></path><path d="M490.534 611.774l-0.112 102.848L190.66 806.874l0.092-22.556 299.78-172.544z" fill="#DBDFE6" p-id="19231"></path><path d="M471.878 643.984l-0.056 56.88-212.21 65.312 212.266-122.192z" fill="#3D4449" p-id="19232"></path><path d="M605.872 530.572l-0.018 9c-0.036 13.276-8.768 26.54-26.214 36.68-35.096 20.404-92.206 20.404-127.534 0-17.79-10.268-26.672-23.74-26.624-37.2l0.018-8.992c-0.038 13.46 8.844 26.93 26.624 37.2 35.338 20.404 92.44 20.404 127.544 0 17.444-10.14 26.168-23.404 26.204-36.68v-0.008z" fill="#E22525" p-id="19233"></path><path d="M515.613609 582.645587a90.186 52.242 0.17 1 0 0.31001-104.48354 90.186 52.242 0.17 1 0-0.31001 104.48354Z" fill="#FF6161" p-id="19234"></path><path d="M597.04 528.99c-0.094 11.952-7.952 23.904-23.646 32.98-31.66 18.424-83.168 18.424-115.032 0-15.956-9.178-23.962-21.232-24.064-33.288 0-0.102 0-0.26 0.054-0.364 0-44.17 36.166-81.006 81.316-81.006 39.38-0.006 73.112 28.192 80.086 66.95 1.36 7.26 1.2 12.53 1.284 14.728z" fill="#3D4449" p-id="19235"></path><path d="M595.754 514.262c-2.764 9.122-10.202 17.854-22.37 24.93-31.65 18.422-83.158 18.422-115.022 0-12.316-7.076-19.904-15.854-22.678-25.04 7-38.7 40.678-66.84 79.984-66.84 39.38-0.006 73.112 28.192 80.086 66.95z" fill="#4F575F" p-id="19236"></path><path d="M897.21 326.768l-0.056 22.192c-0.008 4.386-2.886 8.77-8.658 12.112-11.588 6.74-30.45 6.72-42.094 0-5.874-3.388-8.808-7.84-8.798-12.28l0.066-22.192c-0.02 4.44 2.922 8.89 8.796 12.28 11.636 6.72 30.496 6.74 42.106 0 5.752-3.352 8.628-7.728 8.648-12.102l-0.01-0.01z" fill="#2A3134" p-id="19237"></path><path d="M888.432 314.49c11.646 6.72 11.73 17.648 0.14 24.388-11.61 6.74-30.46 6.722-42.106 0-11.682-6.74-11.74-17.65-0.14-24.388 11.6-6.74 30.432-6.74 42.106 0z" fill="#4F575F" p-id="19238"></path><path d="M857.04 327.392l8.016 28.672-10.296 15.796 43.996 87.97c0.866 1.742 2.68 3.268 4.384 3.696l9.104 2.31c2.066 0.52 3.286-0.68 2.71-2.746l-36.418-130.262-21.494-5.436z m-39.124-146.88c-2.068-0.52-3.278 0.708-2.7 2.756l36.416 130.252 21.486 5.446-8.014-28.672 10.294-15.806-43.976-87.944a7.42 7.42 0 0 0-4.402-3.722l-9.104-2.31z" fill="#FF6161" p-id="19239"></path><path d="M889.902 304.48l-0.046 20.556c-0.01 3.314-2.188 6.61-6.526 9.14-8.75 5.084-22.994 5.076-31.772 0-4.43-2.56-6.646-5.92-6.638-9.27l0.048-20.554c-0.01 3.35 2.206 6.702 6.636 9.272 8.788 5.072 23.012 5.082 31.772 0 4.34-2.532 6.518-5.838 6.518-9.142h0.008z" fill="#2A3134" p-id="19240"></path><path d="M883.274 295.22c8.78 5.072 8.844 13.312 0.094 18.404-8.752 5.082-22.976 5.072-31.764 0-8.806-5.092-8.852-13.312-0.1-18.404 8.75-5.092 22.954-5.092 31.77 0z" fill="#4F575F" p-id="19241"></path><path d="M880.426 283.07l-0.028 20.016c0 1.9-1.256 3.816-3.77 5.268-7.96 4.626-22.194 1.434-22.174-5.352l0.028-20.006c0 1.936 1.274 3.872 3.834 5.354 7.932 4.58 22.092 1.498 22.11-5.28z" fill="#2A3134" p-id="19242"></path><path d="M876.6 277.72c5.074 2.93 5.12 7.688 0.056 10.63-5.046 2.932-13.266 2.922-18.34 0-5.092-2.942-5.12-7.69-0.064-10.632 5.054-2.932 13.266-2.932 18.348 0z" fill="#4F575F" p-id="19243"></path><path d="M911.286 343.952a3.724 3.724 0 0 1 1.35-5.082c35.728-20.768 36.12-63.19-0.28-84.22a3.724 3.724 0 1 1 3.724-6.452c41.146 23.776 41.24 73.31 0.298 97.094a3.724 3.724 0 0 1-5.092-1.34z m-96.852 1.396c-41.184-23.784-41.248-73.29-0.326-97.084a3.724 3.724 0 1 1 3.742 6.442c-35.96 20.9-35.904 63.284 0.308 84.192a3.724 3.724 0 1 1-3.724 6.45z" fill="#95E2FE" p-id="19244"></path><path d="M829.114 319.926c-21.568-12.456-21.708-33.812-0.24-46.286a3.724 3.724 0 1 1 3.74 6.434c-16.486 9.588-16.356 23.83 0.224 33.4a3.724 3.724 0 1 1-3.724 6.452z m67.426-1.35a3.724 3.724 0 0 1 1.34-5.092c16.478-9.58 16.338-23.85-0.214-33.4a3.724 3.724 0 1 1 3.724-6.452c21.56 12.446 21.68 33.828 0.242 46.284a3.724 3.724 0 0 1-5.092-1.34z" fill="#95E2FE" p-id="19245"></path><path d="M176.11 806.978c14.512 8.378 14.596 21.968 0.186 30.346-14.43 8.38-37.888 8.38-52.41 0-14.522-8.378-14.598-21.968-0.168-30.346 14.42-8.38 37.87-8.38 52.392 0z" fill="#BCC1CB" p-id="19246"></path><path d="M105.938 743.46h88.156l-7.046 78.692h-74.1l-7.01-78.69z" fill="#BCC1CB" p-id="19247"></path><path d="M181.258 722.386c17.37 10.026 17.48 26.298 0.214 36.324-17.268 10.044-45.364 10.034-62.734 0-17.38-10.036-17.474-26.3-0.206-36.334 17.26-10.036 45.336-10.036 62.726 0v0.01z" fill="#EBEEF4" p-id="19248"></path><path d="M181.974 719.156l-0.066 22.192c-0.008 4.384-2.884 8.76-8.656 12.112-11.59 6.74-30.44 6.72-42.096 0-5.874-3.39-8.806-7.84-8.798-12.28l0.066-22.192c-0.02 4.44 2.922 8.88 8.796 12.28 11.638 6.72 30.506 6.74 42.106 0 5.754-3.352 8.63-7.728 8.648-12.104v-0.008z" fill="#2A3134" p-id="19249"></path><path d="M173.186 706.876c11.646 6.72 11.73 17.65 0.14 24.39-11.6 6.74-30.46 6.72-42.106 0-11.672-6.74-11.738-17.65-0.14-24.39 11.6-6.74 30.432-6.74 42.106 0z" fill="#4F575F" p-id="19250"></path><path d="M143.146 721.696l15.128 25.648-5.884 17.92 65.154 73.688c1.284 1.454 3.436 2.46 5.194 2.44l9.394-0.112c2.122-0.028 2.998-1.508 1.908-3.352l-68.72-116.5-22.174 0.268z m-75.608-131.854c-2.132 0.028-2.98 1.528-1.908 3.352l68.72 116.504 22.164-0.28-15.12-25.638 5.886-17.92-65.146-73.672a7.42 7.42 0 0 0-5.204-2.458l-9.392 0.112z" fill="#FF6161" p-id="19251"></path><path d="M174.658 696.88l-0.048 20.544c-0.008 3.314-2.186 6.61-6.524 9.14-8.752 5.084-22.986 5.074-31.772 0-4.432-2.56-6.648-5.92-6.64-9.27l0.048-20.556c0 3.352 2.206 6.704 6.638 9.264 8.788 5.072 23.02 5.092 31.772 0 4.346-2.514 6.516-5.828 6.516-9.124h0.01z" fill="#2A3134" p-id="19252"></path><path d="M168.03 687.606c8.786 5.074 8.842 13.312 0.092 18.396-8.75 5.092-22.974 5.072-31.762 0-8.806-5.084-8.854-13.312-0.102-18.396 8.75-5.092 22.956-5.092 31.772 0z" fill="#4F575F" p-id="19253"></path><path d="M165.18 675.46l-0.028 20.012c0 1.9-1.256 3.818-3.76 5.27-7.968 4.626-22.202 1.434-22.184-5.354l0.028-20.004c0 1.936 1.276 3.872 3.836 5.352 7.93 4.58 22.09 1.5 22.108-5.278z" fill="#2A3134" p-id="19254"></path><path d="M161.354 670.106c5.074 2.932 5.12 7.688 0.056 10.63-5.046 2.932-13.266 2.924-18.34 0-5.09-2.94-5.12-7.688-0.064-10.63 5.056-2.932 13.266-2.932 18.348 0z" fill="#4F575F" p-id="19255"></path><path d="M868 806.978c14.5 8.378 14.594 21.968 0.184 30.346-14.428 8.38-37.888 8.38-52.41 0-14.522-8.378-14.596-21.968-0.168-30.346 14.42-8.38 37.87-8.38 52.392 0z" fill="#BCC1CB" p-id="19256"></path><path d="M797.826 743.46h88.148l-7.038 78.692h-74.1l-7.01-78.69z" fill="#BCC1CB" p-id="19257"></path><path d="M873.146 722.386c17.372 10.026 17.474 26.298 0.214 36.324-17.268 10.044-45.362 10.034-62.734 0-17.39-10.036-17.472-26.3-0.204-36.334 17.26-10.036 45.334-10.036 62.724 0v0.01z" fill="#EBEEF4" p-id="19258"></path><path d="M814.248 719.156l0.064 22.192c0.01 4.384 2.886 8.76 8.648 12.112 11.6 6.74 30.46 6.72 42.106 0 5.864-3.39 8.806-7.84 8.796-12.28l-0.064-22.192c0.01 4.44-2.924 8.88-8.798 12.28-11.646 6.72-30.506 6.74-42.104 0-5.762-3.352-8.64-7.728-8.658-12.104l0.01-0.008z" fill="#2A3134" p-id="19259"></path><path d="M823.036 706.876c-11.646 6.72-11.74 17.65-0.14 24.39 11.6 6.74 30.46 6.72 42.104 0 11.674-6.74 11.73-17.65 0.14-24.39-11.6-6.74-30.43-6.74-42.104 0z" fill="#4F575F" p-id="19260"></path><path d="M851.344 723.13l-20.936 21.16 1.312 18.822-81.202 55.456a7.422 7.422 0 0 1-5.632 1.098l-9.076-2.42c-2.048-0.55-2.532-2.2-1.024-3.724l95.138-96.09 21.42 5.7z m105.594-109.288c2.048 0.548 2.512 2.216 1.024 3.724l-95.14 96.088-21.42-5.708 20.936-21.15-1.312-18.822 81.174-55.436a7.412 7.412 0 0 1 5.652-1.116l9.086 2.42z" fill="#FF6161" p-id="19261"></path><path d="M821.564 696.88l0.048 20.544c0.008 3.314 2.178 6.61 6.524 9.14 8.752 5.084 22.984 5.074 31.772 0 4.432-2.56 6.648-5.92 6.638-9.27l-0.046-20.556c0 3.352-2.206 6.704-6.638 9.264-8.788 5.072-23.02 5.092-31.772 0-4.348-2.514-6.516-5.828-6.526-9.124z" fill="#2A3134" p-id="19262"></path><path d="M828.192 687.606c-8.788 5.074-8.852 13.312-0.1 18.396 8.748 5.092 22.982 5.072 31.77 0 8.806-5.084 8.844-13.312 0.094-18.396-8.752-5.092-22.958-5.092-31.764 0z" fill="#4F575F" p-id="19263"></path><path d="M831.032 675.46l0.028 20.012c0 1.9 1.266 3.818 3.77 5.27 7.968 4.626 22.202 1.434 22.174-5.354l-0.028-20.004c0.01 1.936-1.266 3.872-3.826 5.352-5.074 2.924-13.294 2.932-18.34 0-2.512-1.46-3.768-3.37-3.78-5.278z" fill="#2A3134" p-id="19264"></path><path d="M834.868 670.106c-5.074 2.932-5.12 7.688-0.066 10.63 5.054 2.932 13.274 2.924 18.34 0 5.092-2.94 5.12-7.688 0.064-10.63-5.054-2.932-13.256-2.932-18.34 0z" fill="#4F575F" p-id="19265"></path><path d="M893.32 732.812c-3.79 0-5.168-5.028-1.872-6.936 35.728-20.76 36.12-63.18-0.28-84.22a3.724 3.724 0 1 1 3.724-6.44c41.146 23.766 41.24 73.326 0.288 97.092a3.656 3.656 0 0 1-1.86 0.512v-0.008z m-100.074-0.448c-41.174-23.774-41.266-73.29-0.326-97.094a3.726 3.726 0 0 1 3.742 6.442c-35.96 20.91-35.914 63.302 0.308 84.21a3.724 3.724 0 1 1-3.724 6.442z" fill="#95E2FE" p-id="19266"></path><path d="M807.916 706.932c-21.56-12.446-21.69-33.792-0.232-46.276a3.724 3.724 0 1 1 3.752 6.434c-16.496 9.588-16.356 23.83 0.214 33.4a3.726 3.726 0 0 1-3.724 6.452l-0.01-0.01z m67.436-1.34a3.724 3.724 0 0 1 1.35-5.092c16.542-9.626 16.252-23.896-0.214-33.4a3.724 3.724 0 0 1 3.722-6.452c21.532 12.436 21.672 33.828 0.234 46.284a3.724 3.724 0 0 1-5.092-1.34zM196.06 730.968a3.724 3.724 0 0 1 1.35-5.092c35.7-20.74 36.14-63.172-0.28-84.22a3.724 3.724 0 1 1 3.724-6.44c41.148 23.774 41.24 73.308 0.3 97.092a3.724 3.724 0 0 1-5.094-1.34z m-96.86 1.396c-41.174-23.774-41.24-73.29-0.316-97.094a3.726 3.726 0 1 1 3.74 6.442c-35.96 20.91-35.914 63.294 0.308 84.21a3.724 3.724 0 1 1-3.724 6.442H99.2z" fill="#95E2FE" p-id="19267"></path><path d="M113.888 706.932c-21.58-12.446-21.71-33.792-0.242-46.276a3.724 3.724 0 1 1 3.74 6.432c-16.484 9.59-16.354 23.832 0.226 33.402a3.724 3.724 0 1 1-3.724 6.45v-0.008z m67.426-1.34a3.724 3.724 0 0 1 1.34-5.092c16.504-9.598 16.3-23.878-0.214-33.4a3.724 3.724 0 0 1 3.724-6.454c21.55 12.448 21.69 33.83 0.24 46.286a3.724 3.724 0 0 1-5.09-1.34z m16.924-375.418a3.724 3.724 0 0 1 1.34-5.082c35.942-20.9 35.932-63.3-0.28-84.22a3.724 3.724 0 0 1 3.724-6.45c41.156 23.774 41.24 73.308 0.308 97.102-1.78 1.034-4.06 0.43-5.092-1.35z m-96.862 1.398c-41.24-23.814-41.164-73.328-0.326-97.094a3.724 3.724 0 1 1 3.742 6.432c-35.942 20.926-35.904 63.3 0.308 84.21a3.724 3.724 0 1 1-3.724 6.452z" fill="#95E2FE" p-id="19268"></path><path d="M116.056 306.148c-21.568-12.456-21.69-33.81-0.232-46.284a3.724 3.724 0 1 1 3.742 6.432c-16.496 9.588-16.346 23.832 0.214 33.4a3.724 3.724 0 1 1-3.724 6.452z m67.426-1.368a3.714 3.714 0 0 1 1.35-5.084c16.514-9.588 16.29-23.86-0.214-33.39a3.724 3.724 0 0 1 3.724-6.452c21.55 12.446 21.68 33.84 0.232 46.284-1.78 1.034-4.06 0.43-5.092-1.35v-0.008z m350.114 449.61c-0.056 11.916-9.736 21.542-21.652 21.532-11.894 0-21.536-9.64-21.54-21.532-0.054-11.936 9.604-21.644 21.54-21.654 11.96 0 21.652 9.696 21.652 21.654z" fill="#95E2FE" p-id="19269"></path></svg>